<?xml version="1.0" encoding="UTF-8"?>
<svg viewBox="0 0 894.2 144" xmlns="http://www.w3.org/2000/svg">
<path d="M105.3,105.3,143.6,67V57.4l-43.1,43.1-4.8-4.8,47.9-47.8V38.3L90.9,90.9l-4.7-4.7,57.4-57.5V19.1L81.4,81.4l-4.8-4.8,67-67V0L71.8,71.8,0,0V9.6l67,67-4.8,4.8L0,19.2v9.5L57.4,86.2l-4.7,4.7L0,38.3v9.6L47.9,95.7l-4.8,4.8L0,57.4V67l38.3,38.3L0,143.6H9.6l33.5-33.5,4.8,4.8L19.2,143.6h9.5l24-23.9,4.7,4.7L38.3,143.6h9.6l14.3-14.4L67,134h0l4.8,4.8,4.8-4.8h0l4.8-4.8,14.3,14.4h9.6L86.2,124.4l4.7-4.7,24,23.9h9.6L95.7,114.9l4.8-4.8L134,143.6h9.6ZM86.2,95.7l-4.8,4.8-4.8-4.8,4.8-4.8Zm-9.6,9.6-4.8,4.8L67,105.3l4.8-4.8ZM71.8,81.4l4.8,4.8-4.8,4.7L67,86.2Zm-9.6,9.5L67,95.7l-4.8,4.8-4.8-4.8ZM47.9,105.3l4.8-4.8,4.7,4.8-4.7,4.8Zm9.5,9.6,4.8-4.8,4.8,4.8-4.8,4.8Zm14.4,14.3L67,124.4l4.8-4.7,4.8,4.7Zm9.6-9.5-4.8-4.8,4.8-4.8,4.8,4.8Zm9.5-9.6-4.7-4.8,4.7-4.8,4.8,4.8Z" fill="#111"/>
<path d="M181.4,1.5h11.3l12.4,20.1L217.5,1.5h11.3V48.9H218.4V18L205.1,38.2h-.3l-13.2-20V48.9H181.4Z" fill="#111"/>
<path d="M236.7,31v-.2a18.6,18.6,0,0,1,19-18.8c6.8,0,11.1,2.3,14.4,6l-6.2,6.8c-2.3-2.4-4.6-4-8.3-4s-8.8,4.5-8.8,9.9h0c0,5.6,3.6,10,9.2,10,3.5,0,5.8-1.5,8.3-3.8l6,6.1c-3.5,3.8-7.5,6.6-14.8,6.6A18.5,18.5,0,0,1,236.7,31Z" fill="#111"/>
<path d="m274.8 42l6.2-7.4c4.3 3.5 8.7 5.8 14.1 5.8s6.9-1.7 6.9-4.5c0-2.7-1.7-4-9.6-6.1-9.5-2.4-15.7-5-15.7-14.4v-0.2c0-8.5 6.9-14.2 16.6-14.2a27.2 27.2 0 0 1 17.6 6l-5.4 7.8c-4.2-2.9-8.3-4.6-12.3-4.6s-6.1 1.8-6.1 4.1c0 3.1 2 4.2 10.2 6.2s15 6 15 14.2v0.2c0 9.4-7.2 14.7-17.4 14.7a30.7 30.7 0 0 1 -20.1 -7.6z" fill="#111"/>
<path d="m321.2 1.6h10.5v47.3h-10.5z" fill="#111"/>
<path d="M343,1.6h10.4V39.4H377v9.5H343Z" fill="#111"/>
<path d="m374.2 1.6h11.5l12.4 33.3 12.3-33.3h11.3l-19.2 47.6h-9.2z" fill="#111"/>
<path d="m428.1 1.6h35.7v9.2h-25.4v9.6h22.3v9.3h-22.3v9.9h25.7v9.3h-36z" fill="#111"/>
<path d="m473.5 1.6h21.7c6 0 10.7 1.6 13.8 4.8s4 6.3 4 10.8c0 7.6-4.1 12.4-10.1 14.7l11.5 16.9h-12.1l-10.2-15.1h-8.2v15.2h-10.4zm21 22.9c5.1 0 8-2.7 8-6.7 0-4.5-3.1-6.8-8.2-6.8h-10.4v13.5z" fill="#111"/>
<path d="m541.8 1.6h10.4v47.3h-10.4z" fill="#111"/>
<path d="M563.6,1.6h9.6l22.1,29.1V1.6h10.3V48.9h-8.8l-23-30.1V48.9H563.6Z" fill="#111"/>
<path d="m613.5 42l6.1-7.4c4.3 3.5 8.7 5.8 14.1 5.8s6.9-1.7 6.9-4.5c0-2.7-1.7-4-9.6-6.1-9.5-2.4-15.7-5-15.7-14.4v-0.2c0-8.5 6.9-14.2 16.6-14.2a27.2 27.2 0 0 1 17.6 6l-5.4 7.8c-4.2-2.9-8.3-4.6-12.3-4.6s-6.1 1.8-6.1 4.1c0 3.1 2 4.2 10.2 6.2s15 6 15 14.2v0.2c0 9.4-7.2 14.7-17.4 14.7a30.3 30.3 0 0 1 -20 -7.6z" fill="#111"/>
<path d="M670.2,11.2H655.8V1.6H695v9.6H680.6V48.9H670.2Z" fill="#111"/>
<path d="m701.9 1.6h10.4v47.3h-10.4z" fill="#111"/>
<path d="M733.5,11.2H719.1V1.6h39.3v9.6H744V48.9H733.5Z" fill="#111"/>
<path d="m764.7 28.6v-27h10.4v26.7c0 7.7 3.8 11.7 10.2 11.7s10.2-3.8 10.2-11.3v-27.1h10.4v26.7c0 14.3-8 21.3-20.7 21.3s-20.5-7.1-20.5-21z" fill="#111"/>
<path d="M826.6,11.2H812.3V1.6h39.2v9.6H837.1V48.9H826.6Z" fill="#111"/>
<path d="m858.2 1.6h35.7v9.2h-25.4v9.6h22.3v9.3h-22.3v9.9h25.7v9.3h-36z" fill="#111"/>
<path d="M319.9,120h3.8l12.7,16.3V120h4v23.6H337l-13-16.8v16.8h-4.1Z" fill="#111"/>
<path d="m347.8 120h17.5v3.7h-13.4v6.1h11.8v3.7h-11.8v6.4h13.5v3.7h-17.6z" fill="#111"/>
<path d="M369.8,120h4.5l5.6,17.5,5.8-17.6h3.5l5.8,17.6,5.6-17.5H405l-8.2,23.8h-3.6l-5.8-17-5.8,17H378Z" fill="#111"/>
<path d="m428.3 134.3-9.4-14.3h5l6.5 10.4 6.7-10.4h4.8l-9.4 14.2v9.4h-4.2z" fill="#111"/>
<path d="m443.5 131.9a12.2 12.2 0 0 1 12.4 -12.2 11.9 11.9 0 0 1 12.3 12.1 12.4 12.4 0 0 1 -24.7 0.1zm20.4 0a8.1 8.1 0 0 0 -8 -8.4 8 8 0 0 0 -8 8.3c0 4.6 3.3 8.4 8 8.4a8 8 0 0 0 8 -8.3z" fill="#111"/>
<path d="m474.4 120h10.5a9.3 9.3 0 0 1 6.8 2.4 7.1 7.1 0 0 1 2 5c0 3.9-2.4 6.2-5.6 7.2l6.3 8.9h-4.9l-5.8-8.2h-5.2v8.2h-4.1zm10.2 11.7c3 0 4.8-1.6 4.8-3.9 0-2.5-1.8-3.9-4.8-3.9h-6.1v7.9z" fill="#111"/>
<path d="m499.9 120h4.2v11.9l11.2-11.9h5.1l-9.8 10.1 10.2 13.5h-5l-8.1-10.6-3.6 3.8v6.8h-4.2z" fill="#111"/>
<path d="m536.2 133.6v-13.6h4.1v13.4c0 4.4 2.3 6.7 6 6.7s5.9-2.2 5.9-6.5v-13.6h4.1v13.4c0 7-3.9 10.6-10.1 10.6s-10-3.6-10-10.4z" fill="#111"/>
<path d="M563.4,120h3.9l12.6,16.3V120H584v23.6h-3.5l-13-16.8v16.8h-4.1Z" fill="#111"/>
<path d="m591.4 120h4.2v23.6h-4.2z" fill="#111"/>
<path d="m600.5 120h4.6l7.1 18.1 7.1-18.1h4.5l-9.8 23.8h-3.7z" fill="#111"/>
<path d="m628.7 120h17.5v3.7h-13.4v6.1h11.8v3.7h-11.8v6.4h13.5v3.7h-17.6z" fill="#111"/>
<path d="m652.5 120h10.5a9.3 9.3 0 0 1 6.8 2.4 6.7 6.7 0 0 1 2 5c0 3.9-2.4 6.2-5.6 7.2l6.3 8.9h-4.9l-5.8-8.2h-5.2v8.2h-4.1zm10.2 11.7c3 0 4.8-1.6 4.8-3.9 0-2.5-1.8-3.9-4.8-3.9h-6.1v7.9z" fill="#111"/>
<path d="m676.1 140.2l2.5-3c2.3 1.9 4.6 3.1 7.5 3.1s4.1-1.3 4.1-3-0.9-2.6-5.3-3.6-7.8-2.7-7.8-7c0-4 3.3-6.8 8-6.8a13.1 13.1 0 0 1 8.6 2.9l-2.2 3.2a11 11 0 0 0 -6.4 -2.5c-2.5 0-3.9 1.3-3.9 2.8 0 1.8 1.1 2.6 5.6 3.7s7.6 3 7.6 6.9c0 4.4-3.5 7-8.4 7a14.9 14.9 0 0 1 -9.9 -3.7z" fill="#111"/>
<path d="m700.6 120h4.1v23.6h-4.1z" fill="#111"/>
<path d="M717.3,123.8h-7.5V120H729v3.8h-7.5v19.8h-4.2Z" fill="#111"/>
<path d="m742.2 134.3-9.4-14.3h4.9l6.6 10.4 6.7-10.4h4.7l-9.3 14.2v9.4h-4.2z" fill="#111"/>
<path d="m181.3 72.6h17.5v3.8h-13.4v6.4h11.9v3.8h-11.9v9.6h-4.1z" fill="#111"/>
<path d="m202.7 84.5a12.4 12.4 0 0 1 24.7 0 12.1 12.1 0 0 1 -12.4 12.1 11.9 11.9 0 0 1 -12.3 -12.1zm20.3 0c0-4.6-3.3-8.4-8-8.4s-8 3.8-8 8.4a8.1 8.1 0 0 0 8.1 8.4c4.6-0.1 7.9-3.8 7.9-8.4z" fill="#111"/>
<path d="m233.5 72.6h10.5a9.3 9.3 0 0 1 6.8 2.4 6.9 6.9 0 0 1 2 5.1c0 3.9-2.3 6.2-5.6 7.2l6.4 8.9h-5l-5.8-8.2h-5.1v8.2h-4.2zm10.2 11.7c3 0 4.9-1.5 4.9-3.9 0-2.5-1.8-3.9-4.9-3.9h-6v7.9z" fill="#111"/>
<path d="m270 72.6h9.3c5.6 0 9 3.2 9 7.9 0 5.3-4.3 8-9.4 8h-4.7v7.6h-4.2zm9 12.3c3.1 0 5.1-1.8 5.1-4.2 0-2.8-2-4.2-5.1-4.2h-4.8v8.5z" fill="#111"/>
<path d="m292.6 84.5a12.2 12.2 0 0 1 12.4 -12.3 12 12 0 0 1 12.3 12.2 12.4 12.4 0 0 1 -24.7 0.1zm20.4 0a8.1 8.1 0 0 0 -8 -8.4c-4.7 0-8 3.8-8 8.4s3.3 8.4 8 8.4a8 8 0 0 0 8 -8.4z" fill="#111"/>
<path d="m319.9 72.6h4.6l7.1 18.2 7.1-18.2h4.5l-9.8 23.8h-3.7z" fill="#111"/>
<path d="m348.1 72.6h17.5v3.7h-13.4v6.2h11.9v3.7h-11.9v6.3h13.6v3.7h-17.7z" fill="#111"/>
<path d="m371.9 72.6h10.5a9.3 9.3 0 0 1 6.8 2.4 6.9 6.9 0 0 1 2 5.1c0 3.9-2.3 6.2-5.6 7.2l6.4 8.9h-5l-5.8-8.2h-5.2v8.2h-4.1zm10.2 11.7c3 0 4.9-1.5 4.9-3.9 0-2.5-1.9-3.9-4.9-3.9h-6.1v7.9z" fill="#111"/>
<path d="m402.9 76.5h-7.5v-3.9h19.1v3.9h-7.4v19.7h-4.2z" fill="#111"/>
<path d="M427.8,86.9l-9.4-14.3h4.9L429.9,83l6.7-10.4h4.7L432,86.8v9.4h-4.2Z" fill="#111"/>
<path d="m457.1 72.6h9.3c5.5 0 9 3.2 9 7.9 0 5.3-4.3 8-9.5 8h-4.6v7.6h-4.2zm9 12.3c3.1 0 5.1-1.8 5.1-4.2 0-2.8-2-4.2-5.1-4.2h-4.8v8.5z" fill="#111"/>
<path d="m479.7 84.5a12.2 12.2 0 0 1 12.4 -12.2 12 12 0 0 1 12.3 12.2 12.4 12.4 0 0 1 -24.7 0.1zm20.4 0a8.1 8.1 0 0 0 -8.1 -8.5c-4.6 0-7.9 3.8-7.9 8.4s3.3 8.4 8 8.4a8 8 0 0 0 8 -8.3z" fill="#111"/>
<path d="m510.6 72.6h4.1v19.8h12.4v3.8h-16.5z" fill="#111"/>
<path d="m532.2 72.6h4.2v23.6h-4.2z" fill="#111"/>
<path d="m542.6 84.5a12.5 12.5 0 0 1 21.4 -8.6l-2.6 3.1a9.3 9.3 0 0 0 -6.6 -3c-4.5 0-7.8 3.7-7.8 8.4 0 4.6 3.3 8.4 7.8 8.4 2.9 0 4.7-1.2 6.7-3.1l2.7 2.7a12.1 12.1 0 0 1 -9.6 4.2 11.9 11.9 0 0 1 -12 -12.1z" fill="#111"/>
<path d="m576.5 86.9l-9.4-14.3h4.9l6.6 10.4 6.7-10.4h4.7l-9.4 14.2v9.4h-4.1z" fill="#111"/>
<path d="m614.2 72.5h3.8l10.4 23.7h-4.4l-2.4-5.7h-11.1l-2.5 5.7h-4.2zm5.9 14.3l-4.1-9.4-4 9.4z" fill="#111"/>
<path d="M633.3,72.6h3.8l12.7,16.3V72.6h4.1V96.2h-3.5l-13-16.8V96.2h-4.1Z" fill="#111"/>
<path d="m661.2 72.6h8.8c7.4 0 12.5 5.1 12.5 11.8s-5.1 11.8-12.5 11.8h-8.8zm4.1 3.8v16h4.7c4.9 0 8.2-3.3 8.2-7.9s-3.3-8-8.2-8z" fill="#111"/>
<path d="m699.7 72.6h10.5a9.3 9.3 0 0 1 6.8 2.4 6.9 6.9 0 0 1 2 5.1c0 3.9-2.4 6.2-5.6 7.2l6.3 8.9h-4.9l-5.8-8.2h-5.2v8.2h-4.1zm10.2 11.7c3 0 4.9-1.5 4.9-3.9 0-2.5-1.9-3.9-4.9-3.9h-6.1v7.9z" fill="#111"/>
<path d="m725.2 72.6h17.5v3.7h-13.3v6.2h11.8v3.7h-11.8v6.3h13.5v3.7h-17.7z" fill="#111"/>
<path d="m747.4 92.8l2.5-3a11 11 0 0 0 7.5 3.1c2.5 0 4.2-1.2 4.2-3 0-1.6-1-2.6-5.4-3.6s-7.8-2.7-7.8-7c0-4 3.4-6.8 8-6.8a13.1 13.1 0 0 1 8.6 2.9l-2.2 3.2a10.9 10.9 0 0 0 -6.4 -2.4c-2.5 0-3.9 1.2-3.9 2.8 0 1.8 1.1 2.6 5.7 3.7s7.5 3 7.5 6.9c0 4.4-3.5 7.1-8.4 7.1a15 15 0 0 1 -9.9 -3.9z" fill="#111"/>
<path d="m771.7 72.6h17.5v3.7h-13.4v6.2h11.9v3.7h-11.9v6.3h13.6v3.7h-17.7z" fill="#111"/>
<path d="m804.1 72.5h3.8l10.4 23.7h-4.4l-2.4-5.7h-11.1l-2.5 5.7h-4.2zm5.9 14.3l-4.1-9.4-4 9.4z" fill="#111"/>
<path d="m823.2 72.6h10.5a9.3 9.3 0 0 1 6.8 2.4 6.9 6.9 0 0 1 2 5.1c0 3.9-2.3 6.2-5.6 7.2l6.4 8.9h-5l-5.8-8.2h-5.2v8.2h-4.1zm10.2 11.7c3 0 4.9-1.5 4.9-3.9 0-2.5-1.8-3.9-4.9-3.9h-6.1v7.9z" fill="#111"/>
<path d="m847.2 84.5a12.5 12.5 0 0 1 21.4 -8.5l-2.6 3a9.3 9.3 0 0 0 -6.6 -3c-4.5 0-7.8 3.7-7.8 8.4 0 4.6 3.2 8.4 7.8 8.4 2.9 0 4.7-1.2 6.7-3.1l2.7 2.7a12.2 12.2 0 0 1 -9.6 4.2 11.9 11.9 0 0 1 -12 -12.1z" fill="#111"/>
<path d="M874,72.6h4.2v9.8h11.2V72.6h4.2V96.2h-4.2V86.3H878.2v9.9H874Z" fill="#111"/>
</svg>
