<svg width="547" height="117" viewBox="0 0 547 117" fill="none" xmlns="http://www.w3.org/2000/svg">
<path d="M37.9457 114.299C36.3774 114.299 35.106 113.027 35.106 111.459V12.3102C35.106 10.7418 36.3774 9.47046 37.9457 9.47046H51.2072C52.7755 9.47046 54.0469 10.7418 54.0469 12.3102V111.459C54.0469 113.027 52.7755 114.299 51.2072 114.299H37.9457ZM2.83971 17.3081C1.27138 17.3081 0 16.0367 0 14.4684V2.83971C0 1.27138 1.27138 0 2.83972 0H86.3132C87.8815 0 89.1529 1.27138 89.1529 2.83972V14.4684C89.1529 16.0367 87.8815 17.3081 86.3132 17.3081H2.83971Z" fill="#363D3F"/>
<path d="M128.307 116.258C120.36 116.258 113.284 114.462 107.08 110.87C100.984 107.169 96.1397 102.107 92.5474 95.6843C89.064 89.2618 87.3223 81.8596 87.3223 73.4777C87.3223 65.0958 89.1185 57.6936 92.7107 51.2711C96.303 44.8486 101.201 39.8412 107.406 36.249C113.72 32.5479 120.904 30.6973 128.96 30.6973C136.253 30.6973 142.784 32.6023 148.554 36.4123C154.432 40.1134 159.113 45.5017 162.596 52.5774C165.738 58.96 167.463 66.4498 167.771 75.0468C167.827 76.6141 166.55 77.8864 164.982 77.8864H152.21C150.642 77.8864 149.377 76.6137 149.321 75.0464C149.115 69.2372 148.261 64.36 146.758 60.415C145.125 55.843 142.73 52.4685 139.573 50.2914C136.525 48.0054 132.77 46.8624 128.307 46.8624C123.626 46.8624 119.598 47.8966 116.224 49.9648C112.849 52.0331 110.291 55.0811 108.549 59.1087C106.808 63.0275 105.937 67.9805 105.937 73.9675C105.937 79.3015 106.971 83.8734 109.039 87.6834C111.216 91.4933 114.101 94.4324 117.693 96.5007C121.394 98.4601 125.476 99.4398 129.939 99.4398C134.838 99.4398 138.866 98.3512 142.022 96.1741C144.448 94.4173 146.457 92.3069 148.047 89.8428C148.862 88.5806 150.448 87.9806 151.83 88.5707L163.36 93.4963C164.884 94.1475 165.537 95.9661 164.663 97.3744C162.64 100.634 160.209 103.554 157.371 106.134C153.888 109.4 149.697 111.904 144.798 113.645C140.009 115.387 134.511 116.258 128.307 116.258ZM102.245 77.8864C100.677 77.8864 99.4053 76.615 99.4053 75.0466V66.1938C99.4053 64.6255 100.677 63.3541 102.245 63.3541H155.348C156.916 63.3541 158.187 64.6255 158.187 66.1938V75.0466C158.187 76.615 156.916 77.8864 155.348 77.8864H102.245Z" fill="#363D3F"/>
<path d="M361.008 114.299C359.44 114.299 358.168 113.027 358.168 111.459V2.83972C358.168 1.27138 359.44 0 361.008 0H373.616C375.185 0 376.456 1.27138 376.456 2.83972V111.459C376.456 113.027 375.185 114.299 373.616 114.299H361.008Z" fill="#363D3F"/>
<path d="M435.128 116.258C426.964 116.258 419.671 114.462 413.248 110.87C406.935 107.169 401.982 102.107 398.39 95.6843C394.797 89.2618 393.001 81.8596 393.001 73.4777C393.001 65.0958 394.743 57.6936 398.226 51.2711C401.819 44.8486 406.772 39.8412 413.085 36.249C419.399 32.5479 426.638 30.6973 434.802 30.6973C442.966 30.6973 450.205 32.5479 456.519 36.249C462.832 39.8412 467.731 44.8486 471.214 51.2711C474.806 57.6936 476.603 65.0958 476.603 73.4777C476.603 81.8596 474.861 89.2618 471.377 95.6843C467.894 102.107 462.996 107.169 456.682 110.87C450.368 114.462 443.184 116.258 435.128 116.258ZM435.128 99.4398C439.592 99.4398 443.565 98.3512 447.048 96.1741C450.532 93.8882 453.253 90.8402 455.212 87.0302C457.172 83.1114 458.151 78.5939 458.151 73.4777C458.151 68.3615 457.117 63.8984 455.049 60.0884C453.09 56.1696 450.368 53.1216 446.885 50.9445C443.401 48.6586 439.374 47.5156 434.802 47.5156C430.23 47.5156 426.202 48.6041 422.719 50.7812C419.235 52.9584 416.514 56.0063 414.555 59.9251C412.595 63.8439 411.616 68.3615 411.616 73.4777C411.616 78.5939 412.595 83.1114 414.555 87.0302C416.623 90.8402 419.399 93.8882 422.882 96.1741C426.474 98.3512 430.556 99.4398 435.128 99.4398Z" fill="#363D3F"/>
<path d="M183.871 114.299C182.303 114.299 181.032 113.027 181.032 111.459V2.83972C181.032 1.27138 182.303 0 183.871 0H196.48C198.048 0 199.32 1.27138 199.32 2.83972V111.459C199.32 113.027 198.048 114.299 196.48 114.299H183.871Z" fill="#0E99E3"/>
<path d="M323.89 114.298C322.381 114.298 321.135 113.117 321.055 111.609L320.381 98.9491V72.3339C320.381 66.7822 319.783 62.1559 318.585 58.4548C317.388 54.7537 315.483 51.9234 312.87 49.964C310.367 48.0046 307.047 47.0249 302.91 47.0249C299.1 47.0249 295.726 47.8413 292.786 49.4742C290.454 50.7702 288.429 52.6148 286.714 55.008C285.919 56.1174 284.507 56.6563 283.219 56.202L271.854 52.1907C270.231 51.6176 269.481 49.7385 270.385 48.2726C271.954 45.726 273.815 43.2963 275.968 40.9834C278.907 37.8266 282.608 35.3229 287.071 33.4724C291.643 31.6218 297.032 30.6965 303.237 30.6965C311.183 30.6965 317.769 32.1661 322.994 35.1052C328.328 38.0443 332.301 42.3985 334.914 48.1679C337.526 53.9373 338.832 61.0673 338.832 69.5581L338.373 111.489C338.356 113.045 337.09 114.298 335.534 114.298H323.89ZM298.012 116.257C288.214 116.257 280.595 114.08 275.152 109.726C269.818 105.372 267.151 99.2213 267.151 91.2748C267.151 82.784 269.981 76.3071 275.642 71.844C281.411 67.3809 289.412 65.1494 299.644 65.1494H318.685C320.253 65.1494 321.524 66.4208 321.524 67.9891V76.3521C321.524 77.9204 320.253 79.1918 318.685 79.1918H305.523C298.229 79.1918 293.113 80.2259 290.174 82.2942C287.235 84.2536 285.765 87.0839 285.765 90.785C285.765 93.9418 287.017 96.4455 289.521 98.296C292.133 100.038 295.726 100.909 300.297 100.909C304.325 100.909 307.809 99.9833 310.748 98.1327C313.796 96.1733 316.136 93.6696 317.769 90.6217C319.045 88.308 319.854 85.8773 320.195 83.3297C320.403 81.7752 321.653 80.4981 323.221 80.4981H324.236C325.805 80.4981 327.083 81.7711 327.022 83.3383C326.642 93.1059 324.265 100.922 319.892 106.787C315.211 113.1 307.917 116.257 298.012 116.257Z" fill="#363D3F"/>
<path d="M504.52 33.4572C504.183 33.0415 503.677 32.8 503.142 32.8H490.334C489.432 32.8 488.939 33.8499 489.514 34.5441L496.944 43.5168L522.191 73.621H533.358C534.852 73.621 535.677 71.8886 534.737 70.7285L504.52 33.4572Z" fill="#0E99E3"/>
<path d="M522.149 73.6228H535.701C537.26 73.6228 538.061 75.4876 536.989 76.6186L501.661 113.89C501.326 114.243 500.86 114.444 500.373 114.444H488.496C487.266 114.444 486.618 112.986 487.442 112.072L522.149 73.6228Z" fill="#0E99E3"/>
<path d="M528.36 74.2341C528.697 73.8449 529.186 73.6209 529.7 73.6203L546.604 73.6003L511.57 113.833C511.233 114.22 510.745 114.442 510.232 114.442H493.585L528.36 74.2341Z" fill="#0B77B1"/>
<path d="M513.997 33.4572C513.66 33.0415 513.153 32.8 512.618 32.8L495.169 32.8L528.873 72.9867C529.21 73.3887 529.708 73.621 530.232 73.621H546.558L513.997 33.4572Z" fill="#0E99E3"/>
<path d="M240.469 33.4635C240.806 33.044 241.315 32.8 241.852 32.8H254.521C255.42 32.8 255.915 33.8453 255.344 34.5404L247.98 43.5168L222.967 73.621H211.916C210.427 73.621 209.6 71.8963 210.533 70.7347L240.469 33.4635Z" fill="#0E99E3"/>
<path d="M223.009 73.6228H209.594C208.04 73.6228 207.236 75.4794 208.3 76.6126L243.301 113.884C243.637 114.241 244.105 114.444 244.595 114.444H256.34C257.567 114.444 258.216 112.992 257.398 112.077L223.009 73.6228Z" fill="#0E99E3"/>
<path d="M216.86 74.2403C216.524 73.8474 216.032 73.6209 215.515 73.6203L198.78 73.6003L233.484 113.827C233.821 114.218 234.312 114.442 234.828 114.442H251.308L216.86 74.2403Z" fill="#0B77B1"/>
<path d="M231.081 33.4635C231.418 33.044 231.927 32.8 232.465 32.8L249.739 32.8L216.354 72.9804C216.017 73.3862 215.516 73.621 214.989 73.621H198.827L231.081 33.4635Z" fill="#0E99E3"/>
</svg>
